HIERARCHY
ROOT Hips
{
	OFFSET 0.000000 0.000000 0.000000
	CHANNELS 6 Xposition Yposition Zposition Zrotation Yrotation Xrotation 
	JOINT LHipJoint
	{
		OFFSET 0.000000 0.000000 0.000000
		CHANNELS 3 Zrotation Yrotation Xrotation
		JOINT LeftUpLeg
		{
			OFFSET 1.363060 -1.794630 0.839290
			CHANNELS 3 Zrotation Yrotation Xrotation
			JOINT LeftLeg
			{
				OFFSET 2.448110 -6.726130 0.000000
				CHANNELS 3 Zrotation Yrotation Xrotation
				JOINT LeftFoot
				{
					OFFSET 2.562200 -7.039590 0.000000
					CHANNELS 3 Zrotation Yrotation Xrotation
					JOINT LeftToeBase
					{
						OFFSET 0.157640 -0.433110 2.322550
						CHANNELS 3 Zrotation Yrotation Xrotation
						End Site
						{
							OFFSET 0.000000 0.000000 0.000000
						}
					}
				}
			}
		}
	}
	JOINT RHipJoint
	{
		OFFSET 0.000000 0.000000 0.000000
		CHANNELS 3 Zrotation Yrotation Xrotation
		JOINT RightUpLeg
		{
			OFFSET -1.305520 -1.794630 0.839290
			CHANNELS 3 Zrotation Yrotation Xrotation
			JOINT RightLeg
			{
				OFFSET -2.542530 -6.985550 0.000000
				CHANNELS 3 Zrotation Yrotation Xrotation
				JOINT RightFoot
				{
					OFFSET -2.568260 -7.056230 0.000000
					CHANNELS 3 Zrotation Yrotation Xrotation
					JOINT RightToeBase
					{
						OFFSET -0.164730 -0.452590 2.363150
						CHANNELS 3 Zrotation Yrotation Xrotation
						End Site
						{
							OFFSET 0.000000 0.000000 0.000000
						}
					}
				}
			}
		}
	}
	JOINT LowerBack
	{
		OFFSET 0.000000 0.000000 0.000000
		CHANNELS 3 Zrotation Yrotation Xrotation
		JOINT Spine
		{
			OFFSET 0.028270 2.035590 -0.193380
			CHANNELS 3 Zrotation Yrotation Xrotation
			JOINT Spine1
			{
				OFFSET 0.056720 2.048850 -0.042750
				CHANNELS 3 Zrotation Yrotation Xrotation
				JOINT Neck
				{
					OFFSET 0.000000 0.000000 0.000000
					CHANNELS 3 Zrotation Yrotation Xrotation
					JOINT Neck1
					{
						OFFSET -0.054170 1.746240 0.172020
						CHANNELS 3 Zrotation Yrotation Xrotation
						JOINT Head
						{
							OFFSET 0.104070 1.761360 -0.123970
							CHANNELS 3 Zrotation Yrotation Xrotation
							End Site
							{
								OFFSET 0.000000 0.000000 0.000000
							}
						}
					}
				}
				JOINT LeftShoulder
				{
					OFFSET 0.000000 0.000000 0.000000
					CHANNELS 3 Zrotation Yrotation Xrotation
					JOINT LeftArm
					{
						OFFSET 3.362410 1.200890 -0.311210
						CHANNELS 3 Zrotation Yrotation Xrotation
						JOINT LeftForeArm
						{
							OFFSET 4.983000 -0.000000 -0.000000
							CHANNELS 3 Zrotation Yrotation Xrotation
							JOINT LeftHand
							{
								OFFSET 3.483560 -0.000000 -0.000000
								CHANNELS 3 Zrotation Yrotation Xrotation
								JOINT LeftFingerBase
								{
									OFFSET 0.000000 0.000000 0.000000
									CHANNELS 3 Zrotation Yrotation Xrotation
									JOINT LeftHandIndex1
									{
										OFFSET 0.715260 -0.000000 -0.000000
										CHANNELS 3 Zrotation Yrotation Xrotation
										End Site
										{
											OFFSET 0.000000 0.000000 0.000000
										}
									}
								}
								JOINT LThumb
								{
									OFFSET 0.000000 0.000000 0.000000
									CHANNELS 3 Zrotation Yrotation Xrotation
									End Site
									{
										OFFSET 0.000000 0.000000 0.000000
									}
								}
							}
						}
					}
				}
				JOINT RightShoulder
				{
					OFFSET 0.000000 0.000000 0.000000
					CHANNELS 3 Zrotation Yrotation Xrotation
					JOINT RightArm
					{
						OFFSET -3.136600 1.374050 -0.404650
						CHANNELS 3 Zrotation Yrotation Xrotation
						JOINT RightForeArm
						{
							OFFSET -5.241900 -0.000000 -0.000000
							CHANNELS 3 Zrotation Yrotation Xrotation
							JOINT RightHand
							{
								OFFSET -3.444170 -0.000000 -0.000000
								CHANNELS 3 Zrotation Yrotation Xrotation
								JOINT RightFingerBase
								{
									OFFSET 0.000000 0.000000 0.000000
									CHANNELS 3 Zrotation Yrotation Xrotation
									JOINT RightHandIndex1
									{
										OFFSET -0.622530 -0.000000 -0.000000
										CHANNELS 3 Zrotation Yrotation Xrotation
										End Site
										{
											OFFSET 0.000000 0.000000 0.000000
										}
									}
								}
								JOINT RThumb
								{
									OFFSET 0.000000 0.000000 0.000000
									CHANNELS 3 Zrotation Yrotation Xrotation
									End Site
									{
										OFFSET 0.000000 0.000000 0.000000
									}
								}
							}
						}
					}
				}
			}
		}
	}
}
MOTION
Frames: 6
Frame Time: 0.008333
19.246723 17.636389 -0.695811 -175.303296 -80.395713 167.828945 5.966511 1.244607 0.282690 -26.034752 -13.774277 8.864629 -0.987327 7.434967 22.719355 -4.001298 21.007403 -23.813904 0.004100 0.415500 1.141700 -9.734611 -0.108195 -2.689243 35.766465 11.838752 11.552082 -0.172778 -7.248375 20.699090 2.283179 -21.779844 -32.300879 -0.266000 3.318100 -9.165800 -1.792554 1.313751 4.998745 2.054373 1.917649 2.019442 -4.124865 0.754495 2.121288 -0.851464 -5.664293 -2.677960 10.665887 -9.055941 9.420554 0.315200 -4.061700 2.793600 7.039643 5.201510 -1.198513 -95.279233 5.167905 21.125811 13.243389 -16.951363 -3.067679 -1.388753 -3.136082 3.558845 14.697850 6.601036 2.802400 -7.125000 0.000000 0.000000 -9.694300 40.057000 1.194200 -10.382649 -5.856682 0.495397 103.054289 -3.273414 32.430361 -10.617991 15.178528 -2.040546 1.233629 1.817523 1.285454 -17.154505 -0.613495 0.839100 7.125000 0.000000 0.000000 6.654300 -32.594700 2.033500 
19.248095 17.641077 -0.695468 -176.323263 -80.570888 168.961253 5.971641 1.205278 0.277442 -26.293466 -14.022294 8.876225 -1.020428 7.400684 22.567995 -4.118692 21.358087 -23.759913 0.001900 0.279400 0.767800 -9.720458 -0.131178 -2.672914 35.472058 11.778169 11.334242 -0.183779 -7.271805 20.751781 2.306526 -21.826314 -32.250365 -0.299300 3.517700 -9.723700 -1.966818 1.333735 4.928507 2.014039 1.944665 1.988204 -4.171985 0.770303 2.096613 -0.712679 -5.617661 -2.780516 10.662380 -9.002968 9.428977 0.279100 -4.029400 2.821900 7.071851 5.193922 -1.210298 -95.218397 5.209091 21.228927 13.272281 -17.018482 -3.090176 -1.452796 -3.080200 3.592136 14.990722 6.256328 2.755400 -7.125000 0.000000 0.000000 -9.312400 39.682600 1.232800 -10.418725 -5.845879 0.485948 103.200590 -3.246596 32.485664 -10.762531 15.461666 -2.136577 1.143844 1.890082 -2.463070 -16.734529 -0.093537 0.649300 7.125000 0.000000 0.000000 6.919000 -32.034300 2.209500 
19.249238 17.646221 -0.693981 -176.345956 -80.707261 169.113374 5.972473 1.190131 0.278257 -26.301130 -14.152668 8.740064 -1.024970 7.412955 22.557537 -4.159940 21.442364 -23.660206 0.000800 0.177100 0.486600 -9.710713 -0.133885 -2.668393 35.374329 11.725915 11.214191 -0.170884 -7.242931 20.654296 2.309792 -21.831429 -32.245397 -0.298700 3.513900 -9.713000 -1.936372 1.339676 4.823741 1.991996 1.959574 1.973383 -4.280996 0.785054 2.133056 -0.561579 -5.549992 -2.811374 10.633310 -8.924583 9.368280 0.237500 -3.993500 2.787600 7.091941 5.160124 -1.208005 -95.117618 5.143276 21.453706 13.266916 -17.004692 -3.081142 -1.526966 -3.035309 3.490819 15.346111 5.973477 2.737700 -7.125000 0.000000 0.000000 -8.878800 39.384500 1.240100 -10.449222 -5.824647 0.481883 103.324792 -3.182473 32.552082 -10.926938 15.783668 -2.247262 1.042829 1.963071 -6.221620 -16.250671 0.353587 0.489700 7.125000 0.000000 0.000000 7.245200 -31.555600 2.399100 
19.249581 17.650223 -0.692724 -175.252483 -80.731338 168.124103 5.964835 1.213244 0.284482 -26.064741 -14.194809 8.658312 -1.037341 7.380204 22.459495 -4.196967 21.472718 -23.503069 0.000200 0.091400 0.251000 -9.721569 -0.105897 -2.666971 35.573940 11.826214 11.131375 -0.164439 -7.261079 20.669111 2.279652 -21.818773 -32.397605 -0.285000 3.433200 -9.487400 -1.715917 1.321183 4.737872 2.009159 1.945015 1.973188 -4.389765 0.780812 2.222612 -0.460685 -5.443866 -2.936694 10.568251 -8.780907 9.346578 0.186400 -3.922400 2.794600 7.101596 5.125493 -1.200480 -95.067944 4.983460 21.668872 13.234454 -16.917693 -3.047005 -1.593429 -3.000073 3.281341 15.662373 5.744433 2.726100 -7.125000 0.000000 0.000000 -8.494100 39.142600 1.236300 -10.488959 -5.801587 0.469527 103.416756 -3.202654 33.985731 -11.154417 16.287462 -2.433770 0.945356 2.027365 -9.695029 -15.770333 0.822040 0.332000 7.125000 0.000000 0.000000 7.566300 -31.059300 2.597900 
19.251068 17.652738 -0.689866 -175.778905 -80.877574 168.736775 5.965502 1.194609 0.279231 -26.163785 -14.273130 8.620390 -1.058897 7.346092 22.329452 -4.222640 21.485045 -23.333717 0.000300 0.103100 0.283400 -9.710970 -0.116090 -2.657213 35.394657 11.795564 10.974356 -0.175011 -7.288948 20.739566 2.229313 -21.683638 -32.466024 -0.268100 3.330700 -9.200800 -1.801648 1.281161 4.653545 2.006504 1.895934 1.964731 -4.429688 0.748179 2.304119 -0.414342 -5.357276 -3.103912 10.554470 -8.661085 9.411056 0.160100 -3.853500 2.864000 7.134133 5.108757 -1.200931 -95.085714 4.863156 21.795183 13.258090 -16.936094 -3.048366 -1.651550 -2.986858 3.229457 15.967365 5.637033 2.751800 -7.125000 0.000000 0.000000 -8.160400 39.049500 1.205800 -10.591239 -5.792375 0.447671 103.565560 -3.392524 36.646046 -11.549685 17.169962 -2.763689 0.855369 2.088881 -12.798849 -15.336455 1.377811 0.159600 7.125000 0.000000 0.000000 7.842400 -30.485200 2.803100 
19.252897 17.659598 -0.687122 -177.665363 -81.146889 170.827741 5.969941 1.125154 0.264260 -26.516997 -14.502842 8.505576 -1.093880 7.321479 22.176690 -4.206209 21.415032 -23.246623 0.002800 0.341600 0.938500 -9.685799 -0.152071 -2.628098 34.899806 11.750727 10.634689 -0.193410 -7.326084 20.830815 2.188727 -21.544508 -32.478014 -0.260400 3.282900 -9.067400 -2.126428 1.252553 4.428048 1.974955 1.863010 1.926088 -4.464576 0.720476 2.355536 -0.366312 -5.317765 -3.124767 10.608453 -8.617152 9.461019 0.166900 -3.824200 2.891500 7.219030 5.098946 -1.206580 -95.079588 4.838005 21.999163 13.343683 -17.085680 -3.085732 -1.714422 -3.035417 3.275119 16.390307 5.855516 2.920500 -7.125000 0.000000 0.000000 -7.790500 39.371000 1.088300 -10.790717 -5.804046 0.425826 103.819176 -3.768484 39.974700 -12.242375 18.649448 -3.349059 0.671584 2.187446 -18.874419 -14.324104 2.266638 -0.099500 7.125000 0.000000 0.000000 8.522700 -29.559800 3.241300 
